<?xml version="1.0" encoding="utf-8"?>
<!-- Generator: Adobe Illustrator 24.0.0, SVG Export Plug-In . SVG Version: 6.00 Build 0)  -->
<svg version="1.1" id="Layer_1" xmlns="http://www.w3.org/2000/svg" xmlns:xlink="http://www.w3.org/1999/xlink" x="0px" y="0px"
	 viewBox="0 0 81.1 81.8" style="enable-background:new 0 0 81.1 81.8;" xml:space="preserve">
<style type="text/css">
	.st0{fill:#FFFFFF;}
</style>
<title>idea solid icons</title>
<path d="M819.7-370.5c-1.5,0-2.9-0.9-3.6-2.2l-5.9-11.7c-0.3-0.7-0.5-1.4-0.5-2.2l0,0c0-1.7,1.1-3.1,2.7-3.5l1.1-0.3
	c0.7-0.2,1.3-0.7,1.6-1.4l7.2-21.4c1.5-3.7,3.4-7.2,5.7-10.5l6.5-6.8c0.4-0.6,0.5-1.4,0.2-2.2l-5.6-9.9c-0.2-0.6,0.2-1.3,0.8-1.3
	l16.7-1c0.4,0,0.8,0.2,1,0.6l3.9,11.8c0.4,1.2,0.2,2.5-0.5,3.5l-27.6,41.4c-0.3,0.5-0.5,1.2-0.3,1.8c0,0,2.1,10.1,4.6,11.5l3.2,1.2
	c0.7,0,1.3,0.6,1.3,1.3s-0.6,1.3-1.3,1.3H819.7z M833.3-370.6c0.2-0.6,0.4-2.2-0.9-3.1c-1-0.7-1.6-1.5-1.1-2.7l2.2-4.4
	c0.1-0.2,0.2-0.6,0.2-0.6c1.5-8.9,0.4-19.6,0.4-19.6c0-0.3,0.1-0.6,0.3-0.8l13.6-20c0.3-0.4,1-0.2,0.9,0.4L843-380
	c-0.1,0.6,0.2,1.1,0.7,1.4l8,4c1.9,1,4.1,1.4,4.1,1.4c0.7,0,1.3,0.6,1.3,1.3s-0.6,1.3-1.3,1.3L833.3-370.6z"/>
<path class="st0" d="M57.7,19.1l-5.4,38.9c-0.1,0.6,0.2,1.1,0.7,1.4l8,4c1.9,1,4.1,1.4,4.1,1.4c0.7,0,1.3,0.6,1.3,1.3
	c0,0.5-0.2,0.8-0.6,1.1H42.6c0.2-0.7,0.3-2.1-1-2.9c-1-0.7-1.6-1.5-1.1-2.7l2.2-4.4c0.1-0.2,0.2-0.6,0.2-0.6c1.5-8.9,0-19.6,0-19.6
	c0-0.3,0.1-0.6,0.3-0.8l11.6-17H57.7z M41.7,66.1c0-0.7-0.6-1.3-1.3-1.3l-3.2-1.2c-2.6-1.4-4.6-11.5-4.6-11.5
	c-0.1-0.6,0-1.2,0.3-1.8l20.9-31.3l-13-8.4c-4,3.1-8.6,10.7-9.3,16.6c-0.5,3.9-2.1,12-6.9,19c0,0-0.9,1.2-1.6,1.4l-1,0.3
	c-1.6,0.4-2.8,1.8-2.8,3.4c0,0.8,0.2,1.6,0.5,2.3l5.9,11.7c0.5,0.9,1.2,1.6,2.2,1.9h13.5C41.4,66.9,41.7,66.6,41.7,66.1z M23.6,34.1
	l4-4.6l-3.2-2.1l3.2-2.2l-2.6-2.8l3.5-1.2l-1.6-3.3l3.7,0L30.2,14l3.6,1.2l1.1-6c0.2-0.8-0.4-1.6-1.2-1.7c-0.8-0.2-1.6,0.4-1.7,1.2
	l-0.5,2.6l-4.7-1.5l0.5,5l-5,0l2.1,4.6L19.6,21l3.3,3.6l-4,2.8l4.1,2.7l-1.8,2c-0.5,0.6-0.5,1.6,0.2,2.1c0.3,0.2,0.6,0.4,1,0.4
	C22.8,34.6,23.3,34.5,23.6,34.1z"/>
</svg>
