<?xml version="1.0" encoding="utf-8"?>
<!-- Generator: Adobe Illustrator 24.0.0, SVG Export Plug-In . SVG Version: 6.00 Build 0)  -->
<svg version="1.1" id="Layer_1" xmlns="http://www.w3.org/2000/svg" xmlns:xlink="http://www.w3.org/1999/xlink" x="0px" y="0px"
	 viewBox="0 0 81.1 81.8" style="enable-background:new 0 0 81.1 81.8;" xml:space="preserve">
<style type="text/css">
	.st0{fill:#FFFFFF;}
</style>
<title>idea solid icons</title>
<path d="M819.7-370.5c-1.5,0-2.9-0.9-3.6-2.2l-5.9-11.7c-0.3-0.7-0.5-1.4-0.5-2.2l0,0c0-1.7,1.1-3.1,2.7-3.5l1.1-0.3
	c0.7-0.2,1.3-0.7,1.6-1.4l7.2-21.4c1.5-3.7,3.4-7.2,5.7-10.5l6.5-6.8c0.4-0.6,0.5-1.4,0.2-2.2l-5.6-9.9c-0.2-0.6,0.2-1.3,0.8-1.3
	l16.7-1c0.4,0,0.8,0.2,1,0.6l3.9,11.8c0.4,1.2,0.2,2.5-0.5,3.5l-27.6,41.4c-0.3,0.5-0.5,1.2-0.3,1.8c0,0,2.1,10.1,4.6,11.5l3.2,1.2
	c0.7,0,1.3,0.6,1.3,1.3s-0.6,1.3-1.3,1.3H819.7z M833.3-370.6c0.2-0.6,0.4-2.2-0.9-3.1c-1-0.7-1.6-1.5-1.1-2.7l2.2-4.4
	c0.1-0.2,0.2-0.6,0.2-0.6c1.5-8.9,0.4-19.6,0.4-19.6c0-0.3,0.1-0.6,0.3-0.8l13.6-20c0.3-0.4,1-0.2,0.9,0.4L843-380
	c-0.1,0.6,0.2,1.1,0.7,1.4l8,4c1.9,1,4.1,1.4,4.1,1.4c0.7,0,1.3,0.6,1.3,1.3s-0.6,1.3-1.3,1.3L833.3-370.6z"/>
<path class="st0" d="M58.8,33.8c-2.3-4.8-3.2-9.3-3.5-13.2H24.7c-0.2,3.9-1.1,8.4-3.4,13.2c-8.2,19.9-0.3,33.8,0.1,34.4
	c0.2,0.3,0.5,0.5,0.9,0.5H39h1.7V55.5l-6.3-7.8c-0.2-0.2-0.1-0.5,0.1-0.7c0.2-0.2,0.5-0.1,0.7,0.1l6,7.4c0,0,0,0,0.1,0
	c0,0,0.1,0,0.1,0l6.4-7.4c0.2-0.2,0.5-0.2,0.7-0.1c0.2,0.2,0.2,0.5,0.1,0.7l-6.7,7.8v13.1h16.1c0.4,0,0.7-0.2,0.9-0.5
	C59,67.6,67,53.7,58.8,33.8z M47.2,26l-4.7,5.6c-0.1,0.1,0,0.3,0.1,0.3h2.5c0.1,0,0.2,0.2,0.1,0.3l-8,10.4c-0.1,0.1-0.3,0-0.2-0.1
	l3-7.1c0-0.1,0-0.2-0.2-0.2h-3.4c-0.1,0-0.2-0.1-0.2-0.2l3.2-9.2c0-0.1,0.2-0.2,0.3-0.2H47C47.2,25.5,47.4,25.8,47.2,26z"/>
</svg>
