<?xml version="1.0" encoding="utf-8"?>
<!-- Generator: Adobe Illustrator 24.0.0, SVG Export Plug-In . SVG Version: 6.00 Build 0)  -->
<svg version="1.1" id="Layer_1" xmlns="http://www.w3.org/2000/svg" xmlns:xlink="http://www.w3.org/1999/xlink" x="0px" y="0px"
	 viewBox="0 0 81.1 81.8" style="enable-background:new 0 0 81.1 81.8;" xml:space="preserve">
<style type="text/css">
	.st0{fill:#FFFFFF;}
</style>
<title>idea solid icons</title>
<path d="M819.7-370.5c-1.5,0-2.9-0.9-3.6-2.2l-5.9-11.7c-0.3-0.7-0.5-1.4-0.5-2.2l0,0c0-1.7,1.1-3.1,2.7-3.5l1.1-0.3
	c0.7-0.2,1.3-0.7,1.6-1.4l7.2-21.4c1.5-3.7,3.4-7.2,5.7-10.5l6.5-6.8c0.4-0.6,0.5-1.4,0.2-2.2l-5.6-9.9c-0.2-0.6,0.2-1.3,0.8-1.3
	l16.7-1c0.4,0,0.8,0.2,1,0.6l3.9,11.8c0.4,1.2,0.2,2.5-0.5,3.5l-27.6,41.4c-0.3,0.5-0.5,1.2-0.3,1.8c0,0,2.1,10.1,4.6,11.5l3.2,1.2
	c0.7,0,1.3,0.6,1.3,1.3s-0.6,1.3-1.3,1.3H819.7z M833.3-370.6c0.2-0.6,0.4-2.2-0.9-3.1c-1-0.7-1.6-1.5-1.1-2.7l2.2-4.4
	c0.1-0.2,0.2-0.6,0.2-0.6c1.5-8.9,0.4-19.6,0.4-19.6c0-0.3,0.1-0.6,0.3-0.8l13.6-20c0.3-0.4,1-0.2,0.9,0.4L843-380
	c-0.1,0.6,0.2,1.1,0.7,1.4l8,4c1.9,1,4.1,1.4,4.1,1.4c0.7,0,1.3,0.6,1.3,1.3s-0.6,1.3-1.3,1.3L833.3-370.6z"/>
<path class="st0" d="M61.3,37.6c-0.1,2.8-0.7,5.5-1.8,8c-0.6,1.4-1.2,2.8-1.9,4.1c-2,4.3-4,8.3-3.8,13c0,0.2,0.2,1.4,0.4,2.3
	c0.5,3,0.5,3,0.3,3.3c-0.1,0.2-0.4,0.3-0.6,0.4H35.3c-0.2,0-0.5-0.1-0.6-0.3c-0.2-0.2-0.2-0.4-0.2-0.6l0.2-3.5
	c-1.8,0.3-5.2,0.8-6.8,0.4c-2.3-0.7-2.5-5.1-2.5-6.8l-1-1.8c-0.1-0.2-0.2-0.5-0.1-0.7l0.4-1.1l-0.7-0.5c-0.3-0.2-0.4-0.6-0.3-0.9
	l0.9-2.9L22,49.2c-1.1-0.3-1.8-1.5-1.4-2.6c0.1-0.2,0.1-0.3,0.2-0.5l3.6-6c0-5.4,1.3-9.7,3.8-12.9c3.3-4.2,8.5-6.4,15.7-6.4h0.2
	c5.2,0,9.6,1.6,12.6,4.6C59.8,28.7,61.5,33.1,61.3,37.6z M15.4,35l6.1-3L19,28.2l4.5-0.9L22.1,23l4.4,0.3l-0.1-4.4l4,1.7l1.4-4.2
	l3.4,3l3.8-5.6c0.5-0.7,0.3-1.6-0.4-2.1c-0.7-0.5-1.6-0.3-2.1,0.4l-1.9,2.8l-4.3-3.7l-1.8,5.4l-5.3-2.3l0.1,5.7l-5.7-0.4l1.8,5.3
	l-5.5,1.1l3,4.7l-3.1,1.5c-0.7,0.4-1.1,1.3-0.7,2c0.3,0.5,0.8,0.8,1.4,0.8C15,35.1,15.2,35.1,15.4,35z"/>
</svg>
