<svg id="Layer_1" data-name="Layer 1" xmlns="http://www.w3.org/2000/svg" viewBox="0 0 489.11 178.18"><defs><style>.cls-1{fill:#1d1d1b;}</style></defs><path class="cls-1" d="M486.67,29.54A8.06,8.06,0,0,1,486.74,41,7.94,7.94,0,0,1,475.53,41a8,8,0,0,1,.08-11.33,7.91,7.91,0,0,1,11.06-.09ZM476.4,40.21a6.88,6.88,0,0,0,9.56,0,6.89,6.89,0,0,0,.07-9.76,6.85,6.85,0,0,0-11.67,4.83A6.58,6.58,0,0,0,476.4,40.21Zm7.5-5.37a4.71,4.71,0,0,1-1.5.4v.08l.11,0c1.07,0,1.76.83,2.05,2.47.14.43.28.64.45.64a.28.28,0,0,0,.29-.2,2.58,2.58,0,0,0,.15-.69h.64a3,3,0,0,1-.52,1.52,1.55,1.55,0,0,1-1.34.67,1.45,1.45,0,0,1-1.2-.51,2.36,2.36,0,0,1-.4-.87c-.06-.29-.1-.51-.12-.67s0-.31-.05-.46a1.74,1.74,0,0,0-1-1.42,3.63,3.63,0,0,0-1.44-.16V37.2a2.4,2.4,0,0,0,.19,1.19c.12.19.46.29,1,.29v.84H477v-.84q.87,0,1-.39a9.29,9.29,0,0,0,.16-2.36V34.48c0-.6,0-1.08,0-1.45a1.57,1.57,0,0,0-.22-.91,1.27,1.27,0,0,0-.95-.25V31h5.26a5.61,5.61,0,0,1,1.6.34,1.86,1.86,0,0,1,1.27,1.77A1.8,1.8,0,0,1,483.9,34.84Zm-1.76-.26a1.3,1.3,0,0,0,.9-1.35,1.2,1.2,0,0,0-.77-1.15,3,3,0,0,0-1.2-.23c-.5,0-.79.14-.88.41a12.13,12.13,0,0,0-.14,2.51A7.43,7.43,0,0,0,482.14,34.58Z"/><path class="cls-1" d="M5.49,144.42h6.59c.22,0,.31.12.31.32v2.73a.29.29,0,0,1-.31.32H.34a.31.31,0,0,1-.34-.32v-3.08a.41.41,0,0,1,.11-.23l7.48-9.26A3.65,3.65,0,0,0,8.08,133c0-.78-1.21-1.25-1.84-1.25-.84,0-2,.67-2,1.63,0,.17-.11.23-.28.23H.63c-.31,0-.29-.47-.29-.67,0-3.25,3-5.22,6-5.22,3.28,0,6.1,1.71,6.1,5.22a6.81,6.81,0,0,1-2,4.7L5.23,143.9a.31.31,0,0,0,.26.52Z"/><path class="cls-1" d="M20.18,148.25c-3.62,0-5.66-2.35-5.66-5.8v0A.38.38,0,0,1,15,142h3c.29,0,.43.14.43.37,0,1.19.58,1.95,1.78,1.95a1.67,1.67,0,0,0,1.87-1.89v-1.89c0-.9-1.32-1.59-2.33-1.59H15.64c-.29,0-.43-.15-.43-.47v-9.83a.38.38,0,0,1,.43-.44h9.55a.39.39,0,0,1,.43.44v3.16a.4.4,0,0,1-.43.46h-5.7a.39.39,0,0,0-.43.44v1.8c0,.26.15.4.43.4h.75c3.77,0,5.84,2.15,5.84,5.63v1.89C26.08,146.13,24.07,148.25,20.18,148.25Z"/><path class="cls-1" d="M46.23,138.3v9a.41.41,0,0,1-.46.44H42.93a.47.47,0,0,1-.46-.44v-9a1.87,1.87,0,0,0-1.9-1.77,2,2,0,0,0-2.07,1.77v9a.42.42,0,0,1-.46.47H34.91a.42.42,0,0,1-.46-.47V133.8c0-.29.17-.43.46-.43h2c.75,0,.17.72.86.72s1.61-1.25,3.28-1.25a6,6,0,0,1,3.42.93c.15.09.26.21.43.21a6,6,0,0,0,1.1-.41,8.32,8.32,0,0,1,2.87-.73,5.25,5.25,0,0,1,5.35,5.46v9a.42.42,0,0,1-.46.47H50.58a.5.5,0,0,1-.46-.47v-9a1.77,1.77,0,0,0-1.84-1.77A2,2,0,0,0,46.23,138.3Z"/><path class="cls-1" d="M66.71,134.06c1.49,0,2-1,2.33-1a.4.4,0,0,1,.37.2,7.44,7.44,0,0,1,1,1.86c0,.75-1.9,1.3-2.44,1.51-.18,0-.38.11-.38.34,0,.5.23,1,.23,1.46,0,3.42-2.38,5.39-5.66,5.39a.89.89,0,0,0-1,.9c0,.64.6.64,1.06.64,3.17,0,6.21,1.19,6.21,4.87s-3.07,4.88-6.32,4.88c-2.88,0-6.24-1-6.24-4.53a.42.42,0,0,1,.46-.46h3c.26,0,.57.11.57.43,0,.85,1.73.82,2.31.82.77,0,2.3,0,2.3-1.14S63.2,149,62.28,149c-2.9,0-5.09-1-5.09-4.3a8,8,0,0,1,.69-2.38.53.53,0,0,0-.17-.34,5.47,5.47,0,0,1-1.27-3.51,5.4,5.4,0,0,1,5.67-5.58C64,132.87,65,134.06,66.71,134.06Zm-6.53,4.39a1.93,1.93,0,0,0,3.85,0,1.93,1.93,0,0,0-3.85,0Z"/><path class="cls-1" d="M84.71,125.71h3.16a.42.42,0,0,1,.46.46v21.15a.42.42,0,0,1-.46.47H86.23c-.66,0-.37-.73-.75-.73-.17,0-.25.09-.43.21a4.79,4.79,0,0,1-2.81,1c-3.43,0-5.93-1.91-5.93-5.25v-4.73a5.73,5.73,0,0,1,5.9-5.43,16.36,16.36,0,0,1,1.61.32c.31,0,.49-.08.49-.37v-6.62C84.31,125.88,84.42,125.71,84.71,125.71Zm-2.33,10.82a2,2,0,0,0-2,1.74V143a2,2,0,0,0,2,1.71,1.76,1.76,0,0,0,1.9-1.68V138.3A1.86,1.86,0,0,0,82.38,136.53Z"/><path class="cls-1" d="M99.08,144.16h3c.26,0,.44.09.44.35,0,.09,0,.17,0,.23-.75,2.93-3.08,3.51-5.81,3.51-3.08,0-5.75-1.8-5.75-5.31v-4a5.81,5.81,0,0,1,6-6.07c3.08,0,6.15,1.78,6.15,5.95v.93a1.81,1.81,0,0,1-1.58,1.95H95.58a.75.75,0,0,0-.78.84v.58A1.89,1.89,0,0,0,96.67,145C98.65,145,98.25,144.16,99.08,144.16Zm-3.56-5h3c.6,0,.72-.38.72-.9a2.09,2.09,0,0,0-2.19-2,2.21,2.21,0,0,0-2.21,2.15A.85.85,0,0,0,95.52,139.11Z"/><path class="cls-1" d="M119.16,125.71h3.16a.43.43,0,0,1,.46.46v21.15a.43.43,0,0,1-.46.47h-1.64c-.66,0-.38-.73-.75-.73-.17,0-.26.09-.43.21a4.82,4.82,0,0,1-2.82,1c-3.42,0-5.92-1.91-5.92-5.25v-4.73a5.72,5.72,0,0,1,5.89-5.43,15.26,15.26,0,0,1,1.61.32c.32,0,.49-.08.49-.37v-6.62C118.75,125.88,118.87,125.71,119.16,125.71Zm-2.33,10.82a2,2,0,0,0-2,1.74V143a2,2,0,0,0,2,1.71,1.75,1.75,0,0,0,1.89-1.68V138.3A1.85,1.85,0,0,0,116.83,136.53Z"/><path class="cls-1" d="M133.53,144.16h3c.26,0,.43.09.43.35,0,.09,0,.17,0,.23-.74,2.93-3.07,3.51-5.8,3.51-3.08,0-5.75-1.8-5.75-5.31v-4a5.81,5.81,0,0,1,5.95-6.07c3.07,0,6.15,1.78,6.15,5.95v.93a1.81,1.81,0,0,1-1.58,1.95H130a.74.74,0,0,0-.77.84v.58a1.88,1.88,0,0,0,1.87,1.86C133.1,145,132.7,144.16,133.53,144.16Zm-3.56-5h3c.6,0,.72-.38.72-.9a2.09,2.09,0,0,0-2.19-2,2.21,2.21,0,0,0-2.21,2.15A.85.85,0,0,0,130,139.11Z"/><path class="cls-1" d="M150.58,147.35a.38.38,0,0,1-.43.44h-3.33a.44.44,0,0,1-.41-.23L145.09,145a.33.33,0,0,0-.34-.2c-.21,0-.32.06-.38.17L143,147.56a.47.47,0,0,1-.4.23H139a.4.4,0,0,1-.38-.2.47.47,0,0,1,0-.5l3.71-6.61a.43.43,0,0,0,.06-.26.4.4,0,0,0-.06-.24L139.14,134c-.26-.46,0-.69.34-.69H143a.46.46,0,0,1,.4.23l1.18,2.12a.4.4,0,0,0,.38.2.35.35,0,0,0,.34-.2l1-2.12a.46.46,0,0,1,.4-.23h3.65c.46,0,.6.23.37.69l-3.39,6.24a.48.48,0,0,0-.09.23.69.69,0,0,0,.09.27l3.13,6.32A.48.48,0,0,1,150.58,147.35Z"/><path class="cls-1" d="M163.75,138.36h-3.16a.39.39,0,0,1-.43-.41c0-.9-1-1.3-1.73-1.3a2,2,0,0,0-2,1.77v4.41a1.82,1.82,0,0,0,1.84,1.62c.8,0,1.64-.17,1.84-1.36.06-.26.17-.41.43-.41h3.16a.38.38,0,0,1,.43.41c0,3.25-2.93,5.16-5.86,5.16-3.28,0-5.87-2-5.87-5.42v-4.41a5.53,5.53,0,0,1,5.87-5.58c2.93,0,5.86,1.89,5.86,5.11A.38.38,0,0,1,163.75,138.36Z"/><path class="cls-1" d="M174.36,144.16h3c.26,0,.43.09.43.35,0,.09,0,.17,0,.23-.74,2.93-3.07,3.51-5.8,3.51-3.08,0-5.75-1.8-5.75-5.31v-4a5.81,5.81,0,0,1,6-6.07c3.08,0,6.15,1.78,6.15,5.95v.93a1.81,1.81,0,0,1-1.58,1.95h-5.87a.74.74,0,0,0-.77.84v.58A1.88,1.88,0,0,0,172,145C173.93,145,173.53,144.16,174.36,144.16Zm-3.56-5h3c.6,0,.72-.38.72-.9a2.09,2.09,0,0,0-2.19-2,2.21,2.21,0,0,0-2.21,2.15A.85.85,0,0,0,170.8,139.11Z"/><path class="cls-1" d="M182.36,142.54V137c0-.46-.32-.55-.72-.55h-1.41c-.29,0-.49-.08-.49-.4v-2.38c0-.32.29-.32.55-.32h1.46c.46,0,.61-.09.61-.58v-3.57c0-.23.11-.29.31-.29h3.77c.2,0,.32.06.32.29v3.57c0,.52.37.58.8.58h1.93c.2,0,.57,0,.57.29v2.29c0,.35-.14.52-.49.52h-1.95c-.43,0-.86,0-.86.55v5.55c0,1.33,1.61,2.06,2.73,2.06.23,0,.34.05.34.32v3c0,.24-.08.35-.31.35C185.75,148.28,182.36,146.77,182.36,142.54Z"/><path class="cls-1" d="M198.34,132.84c3.14,0,6,2.15,6,5.52V143c0,3.54-2.79,5.28-6,5.28s-6-1.65-6-5.28v-4.61C192.31,135.19,195.35,132.84,198.34,132.84Zm-2,10.13a1.79,1.79,0,0,0,2,1.66c1,0,2-.5,2-1.66v-4.61a1.91,1.91,0,0,0-2-1.83,1.85,1.85,0,0,0-2,1.83Z"/><path class="cls-1" d="M207.69,153.59a.44.44,0,0,1-.49-.46V133.8a.42.42,0,0,1,.46-.46h2c.66,0,.17.72.77.72.4,0,1.07-1.22,2.79-1.22,3.57,0,6.1,2,6.1,5.34V143c0,3.6-2.82,5.25-6.1,5.25a3.28,3.28,0,0,1-1.47-.29.25.25,0,0,0-.14-.06c-.23,0-.32.27-.32.44v4.79c0,.29-.14.46-.43.46Zm5.49-8.94c1,0,2.1-.46,2.1-1.65v-4.76c0-1-1.24-1.71-2.1-1.71a1.88,1.88,0,0,0-1.93,1.68V143A1.89,1.89,0,0,0,213.18,144.65Z"/><path class="cls-1" d="M225.75,147.79h-3.14c-.31,0-.46-.15-.46-.47V133.77c0-.29.15-.43.46-.43h2.1c.32,0,.46.14.46.43v.93c0,.23.35.38.46.38a.28.28,0,0,0,.23-.09,5.22,5.22,0,0,1,4.72-2.15c.28,0,.43.15.43.47v3.51a.38.38,0,0,1-.43.43c-1.58,0-4.37.38-4.37,2.85v7.22A.42.42,0,0,1,225.75,147.79Z"/><path class="cls-1" d="M239,132.84c3.13,0,6,2.15,6,5.52V143c0,3.54-2.79,5.28-6,5.28s-6-1.65-6-5.28v-4.61C233,135.19,236,132.84,239,132.84ZM237,143a1.78,1.78,0,0,0,2,1.66c1,0,2-.5,2-1.66v-4.61a1.9,1.9,0,0,0-2-1.83,1.85,1.85,0,0,0-2,1.83Z"/><path class="cls-1" d="M253.61,131.45v1.45c0,.29.14.44.46.44h2.59c.31,0,.46.14.46.43V136a.4.4,0,0,1-.46.46h-2.59c-.32,0-.46.15-.46.41v10.5c0,.32-.15.47-.43.47H250c-.28,0-.43-.15-.43-.47v-10.5c0-.26-.14-.41-.46-.41h-2c-.29,0-.43-.14-.43-.46V133.8c0-.32.14-.46.43-.46h2c.32,0,.46-.15.46-.44v-1.51c0-3.91,2.36-6.21,6.13-6.23h1c.31,0,.46.14.46.43v2.87c0,.32-.15.47-.46.47h-1A2.46,2.46,0,0,0,253.61,131.45Z"/><path class="cls-1" d="M266.43,144.16h3c.26,0,.43.09.43.35,0,.09,0,.17,0,.23-.75,2.93-3.08,3.51-5.81,3.51-3.08,0-5.75-1.8-5.75-5.31v-4a5.81,5.81,0,0,1,6-6.07c3.08,0,6.15,1.78,6.15,5.95v.93a1.81,1.81,0,0,1-1.58,1.95h-5.86a.75.75,0,0,0-.78.84v.58A1.88,1.88,0,0,0,264,145C266,145,265.6,144.16,266.43,144.16Zm-3.56-5h3c.6,0,.72-.38.72-.9a2.09,2.09,0,0,0-2.19-2,2.21,2.21,0,0,0-2.21,2.15A.85.85,0,0,0,262.87,139.11Z"/><path class="cls-1" d="M277,138.21v9.11a.42.42,0,0,1-.46.47h-3.13a.42.42,0,0,1-.46-.47V133.8c0-.29.17-.43.46-.43h2c.71,0,.2.69.74.69a.78.78,0,0,0,.43-.2,5.11,5.11,0,0,1,3-1c3.08,0,5.55,1.95,5.55,5.37v9.11a.42.42,0,0,1-.46.47h-3.07a.45.45,0,0,1-.46-.47v-9.11a1.89,1.89,0,0,0-2-1.71C278.16,136.5,277,137.17,277,138.21Z"/><path class="cls-1" d="M293.78,132.84c3.13,0,6,2.15,6,5.52V143c0,3.54-2.78,5.28-6,5.28s-6-1.65-6-5.28v-4.61C287.74,135.19,290.79,132.84,293.78,132.84Zm-2,10.13a1.79,1.79,0,0,0,2,1.66c1,0,2-.5,2-1.66v-4.61a1.91,1.91,0,0,0-2-1.83,1.86,1.86,0,0,0-2,1.83Z"/><path class="cls-1" d="M312.44,127.82a.42.42,0,0,1,.34-.17h3.63a.41.41,0,0,1,.43.44.56.56,0,0,1-.12.31c-3.13,3.83-4.91,7.69-4.91,12.77a19.15,19.15,0,0,0,4.71,12.57.48.48,0,0,1,.12.29c0,.32-.18.43-.46.43h-3.57a.44.44,0,0,1-.37-.17,21.72,21.72,0,0,1-4.4-13.12A21.46,21.46,0,0,1,312.44,127.82Z"/><path class="cls-1" d="M321.18,142.54V137c0-.46-.32-.55-.72-.55h-1.41c-.28,0-.49-.08-.49-.4v-2.38c0-.32.29-.32.55-.32h1.47c.46,0,.6-.09.6-.58v-3.57c0-.23.12-.29.32-.29h3.76c.2,0,.32.06.32.29v3.57c0,.52.37.58.8.58h1.93c.2,0,.58,0,.58.29v2.29c0,.35-.15.52-.49.52h-2c-.43,0-.86,0-.86.55v5.55c0,1.33,1.61,2.06,2.73,2.06.23,0,.35.05.35.32v3c0,.24-.09.35-.32.35C324.57,148.28,321.18,146.77,321.18,142.54Z"/><path class="cls-1" d="M335.07,147.79h-3.14c-.31,0-.46-.15-.46-.47V133.77c0-.29.15-.43.46-.43H334c.32,0,.46.14.46.43v.93c0,.23.35.38.46.38a.27.27,0,0,0,.23-.09,5.22,5.22,0,0,1,4.72-2.15c.29,0,.43.15.43.47v3.51a.38.38,0,0,1-.43.43c-1.58,0-4.37.38-4.37,2.85v7.22A.42.42,0,0,1,335.07,147.79Z"/><path class="cls-1" d="M348.32,132.84c3.14,0,6,2.15,6,5.52V143c0,3.54-2.79,5.28-6,5.28s-6-1.65-6-5.28v-4.61C342.29,135.19,345.33,132.84,348.32,132.84Zm-2,10.13a1.79,1.79,0,0,0,2,1.66c1,0,2-.5,2-1.66v-4.61a1.91,1.91,0,0,0-2-1.83,1.85,1.85,0,0,0-2,1.83Z"/><path class="cls-1" d="M369,138.3v9a.41.41,0,0,1-.46.44h-2.85a.47.47,0,0,1-.46-.44v-9a1.87,1.87,0,0,0-1.89-1.77,2,2,0,0,0-2.07,1.77v9a.43.43,0,0,1-.46.47h-3.14a.42.42,0,0,1-.46-.47V133.8c0-.29.17-.43.46-.43h2c.74,0,.17.72.86.72s1.61-1.25,3.28-1.25a6,6,0,0,1,3.42.93.83.83,0,0,0,.43.21,6.14,6.14,0,0,0,1.09-.41,8.38,8.38,0,0,1,2.88-.73,5.25,5.25,0,0,1,5.34,5.46v9a.42.42,0,0,1-.46.47h-3.13a.5.5,0,0,1-.46-.47v-9a1.76,1.76,0,0,0-1.84-1.77A2,2,0,0,0,369,138.3Z"/><path class="cls-1" d="M387.49,144.16h3c.26,0,.43.09.43.35,0,.09,0,.17,0,.23-.75,2.93-3.08,3.51-5.81,3.51-3.07,0-5.75-1.8-5.75-5.31v-4a5.82,5.82,0,0,1,5.95-6.07c3.08,0,6.16,1.78,6.16,5.95v.93a1.82,1.82,0,0,1-1.59,1.95H384a.75.75,0,0,0-.78.84v.58a1.89,1.89,0,0,0,1.87,1.86C387.06,145,386.65,144.16,387.49,144.16Zm-3.57-5h3c.61,0,.72-.38.72-.9a2.08,2.08,0,0,0-2.18-2,2.21,2.21,0,0,0-2.22,2.15A.86.86,0,0,0,383.92,139.11Z"/><path class="cls-1" d="M395.48,142.54V137c0-.46-.31-.55-.72-.55h-1.41c-.28,0-.48-.08-.48-.4v-2.38c0-.32.28-.32.54-.32h1.47c.46,0,.6-.09.6-.58v-3.57c0-.23.12-.29.32-.29h3.76c.21,0,.32.06.32.29v3.57c0,.52.37.58.81.58h1.92c.2,0,.58,0,.58.29v2.29c0,.35-.15.52-.49.52h-2c-.43,0-.86,0-.86.55v5.55c0,1.33,1.61,2.06,2.73,2.06.23,0,.35.05.35.32v3c0,.24-.09.35-.32.35C398.87,148.28,395.48,146.77,395.48,142.54Z"/><path class="cls-1" d="M414.8,147.79c-.34,0-.08-.61-.54-.61a1.22,1.22,0,0,0-.61.17,4.83,4.83,0,0,1-2.84.9c-2.76,0-5.55-1.3-5.55-4.23,0-6.24,7.88-4.1,7.88-6.42,0-1.1-1.56-1.33-2.42-1.33a5.8,5.8,0,0,0-2.82.93c-.26.14-.46.23-.66-.06L405.75,135a.46.46,0,0,1,0-.4c1.12-1.17,4-1.78,5.54-1.78,3,0,5.87.93,5.87,4.47v10.16c0,.2-.09.32-.29.32ZM413,141.52c-.06,0-.11,0-.17,0-.66.15-1.12.35-1.76.52-.8.23-1.75.64-1.75,1.66s1,1.33,1.75,1.33a2.21,2.21,0,0,0,2.36-2.15V142A.45.45,0,0,0,413,141.52Z"/><path class="cls-1" d="M432.14,138.3v9a.41.41,0,0,1-.46.44h-2.85a.48.48,0,0,1-.46-.44v-9a1.86,1.86,0,0,0-1.89-1.77,2,2,0,0,0-2.07,1.77v9a.43.43,0,0,1-.46.47h-3.14a.43.43,0,0,1-.46-.47V133.8a.4.4,0,0,1,.46-.43h2c.75,0,.17.72.86.72s1.61-1.25,3.28-1.25a6,6,0,0,1,3.42.93.83.83,0,0,0,.43.21,6.14,6.14,0,0,0,1.09-.41,8.43,8.43,0,0,1,2.88-.73,5.26,5.26,0,0,1,5.35,5.46v9a.43.43,0,0,1-.46.47h-3.14a.5.5,0,0,1-.46-.47v-9a1.76,1.76,0,0,0-1.84-1.77A2,2,0,0,0,432.14,138.3Z"/><path class="cls-1" d="M448.76,132.84c3.14,0,6,2.15,6,5.52V143c0,3.54-2.79,5.28-6,5.28s-6-1.65-6-5.28v-4.61C442.72,135.19,445.77,132.84,448.76,132.84Zm-2,10.13a1.78,1.78,0,0,0,2,1.66c1,0,2-.5,2-1.66v-4.61a1.9,1.9,0,0,0-2-1.83,1.85,1.85,0,0,0-2,1.83Z"/><path class="cls-1" d="M461.18,147.79h-3.1c-.32,0-.46-.15-.46-.47V126.11a.38.38,0,0,1,.43-.43h3.13c.32,0,.46.14.46.43v21.21C461.64,147.64,461.5,147.79,461.18,147.79Z"/><path class="cls-1" d="M473.23,141.17a21.56,21.56,0,0,1-4.43,13.12.38.38,0,0,1-.34.17h-3.57c-.31,0-.46-.11-.46-.43a.35.35,0,0,1,.12-.29,19.15,19.15,0,0,0,4.71-12.57c0-5.08-1.78-8.94-4.91-12.77a.41.41,0,0,1-.12-.31.41.41,0,0,1,.43-.44h3.63a.41.41,0,0,1,.34.17A21.46,21.46,0,0,1,473.23,141.17Z"/><path class="cls-1" d="M61.67,40l36.44,46q7.73,9.72,13.3,13.19a16.22,16.22,0,0,0,8.56,2.46v2.86H66v-2.86c3.41-.3,5.62-.84,6.61-1.61a3.53,3.53,0,0,0,1.49-2.86q0-3.24-7-12.18L43.33,54.91l-3.82,3.24V86.69q0,8.18.91,10.18a7.79,7.79,0,0,0,3.52,3.43q2.6,1.42,8.33,1.42v2.86H0v-2.86H3.44a14.25,14.25,0,0,0,7.26-1.61,7,7,0,0,0,3.05-3.71q.84-1.84.84-9.71V17.89c0-5.34-.28-8.69-.84-10a7.64,7.64,0,0,0-3.4-3.51A13.52,13.52,0,0,0,3.44,2.85H0V0H51.58V2.85q-5.28,0-8,1.55A7.36,7.36,0,0,0,40.42,8q-.91,1.94-.91,9.87V50.44L77.94,19.05q8-6.56,8-10.49c0-1.95-1.09-3.5-3.28-4.63Q81,3.09,74.35,2.85V0h40.42V2.85a22.7,22.7,0,0,0-8.52,2Q103.16,6.41,92,15.5Z"/><path class="cls-1" d="M180.09,65.94h-39.2q.69,14.34,7.57,22.67,5.26,6.4,12.68,6.4a14.35,14.35,0,0,0,8.33-2.58q3.74-2.58,8-9.29l2.6,1.69q-5.81,12-12.84,16.93a27.42,27.42,0,0,1-16.27,5q-15.9,0-24.07-12.34-6.57-9.95-6.57-24.68,0-18,9.66-28.73t22.66-10.68q10.85,0,18.83,9T180.09,65.94Zm-18.8-5.17q0-12.42-1.33-17a14,14,0,0,0-4.17-7,6.3,6.3,0,0,0-4.28-1.39q-4,0-6.49,3.93-4.52,6.87-4.51,18.82v2.7Z"/><path class="cls-1" d="M213.47,6.09V32.47h17V40.1h-17V84.6q0,6.25.57,8.06a5.77,5.77,0,0,0,2,2.93,4.45,4.45,0,0,0,2.67,1.12q5,0,9.4-7.63l2.29,1.69q-6.19,14.81-20.1,14.81a17.65,17.65,0,0,1-11.5-3.82,16.78,16.78,0,0,1-6-8.52q-.76-2.62-.77-14.19V40.1h-9.32V37.4A98.55,98.55,0,0,0,199.14,23,88.21,88.21,0,0,0,211,6.09Z"/><path class="cls-1" d="M293.84,65.94h-39.2q.69,14.34,7.56,22.67,5.28,6.4,12.69,6.4a14.38,14.38,0,0,0,8.33-2.58q3.73-2.58,8-9.29l2.6,1.69Q288,96.8,281,101.76a27.45,27.45,0,0,1-16.28,5q-15.89,0-24.06-12.34-6.58-9.95-6.58-24.68,0-18,9.67-28.73t22.66-10.68q10.84,0,18.83,9T293.84,65.94ZM275,60.77q0-12.42-1.34-17a14,14,0,0,0-4.16-7,6.3,6.3,0,0,0-4.28-1.39q-4,0-6.49,3.93-4.51,6.87-4.51,18.82v2.7Z"/><path class="cls-1" d="M344,30.46l1.14,24.61h-2.6q-4.65-10.95-9.66-15t-10-4a7.43,7.43,0,0,0-5.35,2.13,6.57,6.57,0,0,0-2.22,4.89,6.36,6.36,0,0,0,1.53,4q2.44,3.16,13.68,10.84t14.78,13a21.24,21.24,0,0,1,3.56,12,25.56,25.56,0,0,1-3,11.8,21,21,0,0,1-8.41,8.87,23.81,23.81,0,0,1-12,3.09q-5.11,0-13.67-3.24a11.21,11.21,0,0,0-3.14-.85q-2.52,0-4.2,3.86H302l-1.22-25.92h2.59q3.45,10.18,9.44,15.27T324.16,101a8.23,8.23,0,0,0,6-2.27,7.45,7.45,0,0,0,2.33-5.52,9.62,9.62,0,0,0-2.29-6.4q-2.29-2.7-10.24-8.17-11.7-8.18-15.13-12.5a21.82,21.82,0,0,1-5.05-14,22.78,22.78,0,0,1,5.7-15.08q5.68-6.75,16.46-6.75a23.9,23.9,0,0,1,11.24,2.85,7.4,7.4,0,0,0,3.36,1.16,3.8,3.8,0,0,0,2.21-.58,14.41,14.41,0,0,0,2.68-3.28Z"/><path class="cls-1" d="M401,30.46l1.14,24.61h-2.6q-4.65-10.95-9.66-15t-10-4a7.42,7.42,0,0,0-5.34,2.13,6.57,6.57,0,0,0-2.22,4.89,6.36,6.36,0,0,0,1.53,4q2.44,3.16,13.68,10.84t14.78,13a21.24,21.24,0,0,1,3.56,12,25.56,25.56,0,0,1-3,11.8,21,21,0,0,1-8.41,8.87,23.84,23.84,0,0,1-12,3.09q-5.11,0-13.67-3.24a11.21,11.21,0,0,0-3.14-.85q-2.52,0-4.2,3.86H359l-1.22-25.92h2.59q3.45,10.18,9.44,15.27T381.15,101a8.23,8.23,0,0,0,6-2.27,7.45,7.45,0,0,0,2.33-5.52,9.58,9.58,0,0,0-2.3-6.4q-2.28-2.7-10.24-8.17-11.69-8.18-15.13-12.5a21.86,21.86,0,0,1-5-14,22.82,22.82,0,0,1,5.69-15.08q5.7-6.75,16.47-6.75a23.83,23.83,0,0,1,11.23,2.85,7.46,7.46,0,0,0,3.37,1.16,3.8,3.8,0,0,0,2.21-.58,14.69,14.69,0,0,0,2.68-3.28Z"/><path class="cls-1" d="M473.36,65.94h-39.2q.69,14.34,7.57,22.67Q447,95,454.41,95a14.35,14.35,0,0,0,8.33-2.58q3.75-2.58,8-9.29l2.6,1.69q-5.81,12-12.83,16.93a27.47,27.47,0,0,1-16.28,5q-15.9,0-24.07-12.34-6.57-9.95-6.57-24.68,0-18,9.66-28.73t22.66-10.68q10.85,0,18.84,9T473.36,65.94Zm-18.8-5.17q0-12.42-1.33-17a13.91,13.91,0,0,0-4.17-7,6.28,6.28,0,0,0-4.28-1.39q-4,0-6.49,3.93-4.52,6.87-4.51,18.82v2.7Z"/><path class="cls-1" d="M9.62,177.49c0,.24-.11.34-.33.34H8.22c-.22,0-.32-.1-.32-.34v-8.71a.29.29,0,0,0-.33-.33.26.26,0,0,0-.28.18l-1.67,4.23a.3.3,0,0,1-.31.24h-1a.23.23,0,0,1-.25-.19l-1.7-4.28a.31.31,0,0,0-.3-.18.29.29,0,0,0-.33.33v8.71c0,.24-.11.34-.32.34H.32c-.21,0-.32-.1-.32-.34V163.23a.29.29,0,0,1,.32-.33h1a.32.32,0,0,1,.33.22l2.9,7.21a.29.29,0,0,0,.3.17.28.28,0,0,0,.28-.17L8,163.12a.28.28,0,0,1,.3-.22h1a.29.29,0,0,1,.33.33Z"/><path class="cls-1" d="M15.79,168.13a.26.26,0,0,0-.28-.17.3.3,0,0,0-.32.34v9.19c0,.24-.11.34-.32.34h-1c-.24,0-.35-.1-.35-.34V163.23a.29.29,0,0,1,.32-.33h.89a.32.32,0,0,1,.3.22l4.56,9c0,.09.11.13.26.13a.29.29,0,0,0,.32-.32v-8.69c0-.24.11-.35.34-.35h1c.23,0,.34.11.34.35v14.28c0,.22-.11.32-.34.32h-.87c-.12,0-.21-.06-.3-.21Z"/><path class="cls-1" d="M25.07,174.8c0-.19.11-.28.3-.28l1.25,0c.23,0,.28.09.32.28.24,1.16.86,1.59,2.11,1.59s2.24-.47,2.24-1.83a2.47,2.47,0,0,0-.67-1.57l-3.81-3.72A4.36,4.36,0,0,1,25.22,166,3.48,3.48,0,0,1,29,162.52c2,0,3.85,1.24,3.85,3.37,0,.2-.12.28-.32.28H31.44a.45.45,0,0,1-.37-.28,2,2,0,0,0-2-1.68c-1.09,0-2,.54-2,1.73a2.5,2.5,0,0,0,.78,1.67l4,4.09a3.77,3.77,0,0,1,1.16,2.84c0,2.56-1.59,3.64-4,3.64C27,178.18,25.07,177.08,25.07,174.8Z"/><path class="cls-1" d="M44.15,177.83H42.78a.33.33,0,0,1-.31-.17l-2.77-6.34c0-.11-.15-.13-.26-.13H38.26a.15.15,0,0,0-.17.17v6.13a.3.3,0,0,1-.33.34H36.67a.31.31,0,0,1-.35-.34V163.23a.31.31,0,0,1,.35-.33h2.77c2.65,0,4.26,1.42,4.26,4.11,0,2.13-.64,3.06-2,3.77-.1.06-.1.15-.1.26a.52.52,0,0,0,0,.17c.28.6,2.82,6.06,2.82,6.3S44.37,177.83,44.15,177.83ZM38.09,165v4.13c0,.26.12.39.38.39h1.08c1.63,0,2.3-.89,2.3-2.48a2.1,2.1,0,0,0-2.41-2.36h-1A.28.28,0,0,0,38.09,165Z"/><path class="cls-1" d="M56.89,177.49c0,.24-.11.34-.32.34H55.49c-.21,0-.32-.1-.32-.34v-8.71a.29.29,0,0,0-.32-.33.25.25,0,0,0-.28.18l-1.68,4.23a.29.29,0,0,1-.3.24h-1a.24.24,0,0,1-.26-.19l-1.7-4.28a.3.3,0,0,0-.3-.18c-.22,0-.32.11-.32.33v8.71c0,.24-.11.34-.33.34H47.6c-.22,0-.33-.1-.33-.34V163.23a.29.29,0,0,1,.33-.33h1a.31.31,0,0,1,.32.22l2.9,7.21a.3.3,0,0,0,.31.17.28.28,0,0,0,.28-.17l2.86-7.21a.27.27,0,0,1,.3-.22h1a.29.29,0,0,1,.32.33Z"/><path class="cls-1" d="M66.72,172v.88c0,.24-.1.35-.32.35H61.15c-.21,0-.32-.11-.32-.35V172a.29.29,0,0,1,.32-.32H66.4A.28.28,0,0,1,66.72,172Z"/><path class="cls-1" d="M77.46,163.23v1c0,.24-.11.35-.34.35H72.75a.28.28,0,0,0-.32.32v4.45c0,.13,0,.2.17.2h3.1a.29.29,0,0,1,.32.3v1a.28.28,0,0,1-.32.32h-3a.26.26,0,0,0-.3.28V176a.28.28,0,0,0,.32.32h4.37c.23,0,.34.11.34.32v.84c0,.24-.11.34-.34.34H71c-.24,0-.35-.1-.35-.34V163.23c0-.22.11-.33.35-.33h6.11C77.35,162.9,77.46,163,77.46,163.23Z"/><path class="cls-1" d="M87.27,163.23v1c0,.24-.1.35-.34.35H82.56a.29.29,0,0,0-.32.32v4.52c0,.11,0,.17.17.17h3.1a.29.29,0,0,1,.32.3v1a.29.29,0,0,1-.32.33h-3a.27.27,0,0,0-.3.28v6a.28.28,0,0,1-.28.32H80.82c-.24,0-.34-.1-.34-.34V163.23c0-.22.1-.33.34-.33h6.11C87.17,162.9,87.27,163,87.27,163.23Z"/></svg>